<svg width="1920" height="738" viewBox="0 0 1920 738" fill="none" xmlns="http://www.w3.org/2000/svg">
<path opacity="0.5" d="M1920 25.5726V684.693L1884.44 686.307C1848.89 687.923 1777.78 691.154 1706.67 698.423C1635.56 705.692 1564.44 717 1493.33 724.268C1422.22 731.539 1351.11 734.769 1280 733.153C1208.89 731.539 1137.78 725.076 1066.67 716.192C995.555 707.307 924.445 695.999 853.334 695.999C782.221 695.999 711.11 707.307 640 712.962C568.89 718.615 497.779 718.615 426.666 712.962C355.555 707.307 284.445 695.999 213.334 699.231C142.221 702.462 71.1104 720.231 35.5552 729.116L0 738V11.0333L35.6091 13.4609C71.182 15.8839 142.256 20.7252 213.334 17.495C284.445 14.2652 355.555 2.95573 426.666 0.531845C497.779 -1.89204 568.89 4.57166 640 15.8791C711.11 27.1885 782.221 43.3457 853.334 43.3457C924.445 43.3457 995.555 27.1885 1066.67 19.1109C1137.78 11.0333 1208.89 11.0333 1280 11.0333C1351.11 11.0333 1422.22 11.0333 1493.33 7.80148C1564.44 4.57166 1635.56 -1.89204 1706.67 0.531845C1777.76 2.95518 1848.86 14.26 1884.42 19.915L1920 25.5726Z" fill="#3E0D93"/>
</svg>
