<svg width="1920" height="738" viewBox="0 0 1920 738" fill="none" xmlns="http://www.w3.org/2000/svg">
<path opacity="0.5" d="M35.5552 19.9189L0 25.5726V360L4.86374e-05 684.693L35.5553 686.307C71.1105 687.923 142.221 691.154 213.334 698.423C284.445 705.692 355.555 717 426.666 724.268C497.779 731.539 568.89 734.769 640 733.153C711.11 731.539 782.221 725.076 853.334 716.192C924.445 707.307 995.555 695.999 1066.67 695.999C1137.78 695.999 1208.89 707.307 1280 712.962C1351.11 718.615 1422.22 718.615 1493.33 712.962C1564.44 707.307 1635.56 695.999 1706.67 699.231C1777.78 702.462 1848.89 720.231 1884.44 729.116L1920 738V360V11.0333L1884.44 13.4572L1884.39 13.4609C1848.82 15.8839 1777.74 20.7252 1706.67 17.495C1635.56 14.2652 1564.44 2.95573 1493.33 0.531845C1422.22 -1.89204 1351.11 4.57166 1280 15.8791C1208.89 27.1885 1137.78 43.3457 1066.67 43.3457C995.555 43.3457 924.445 27.1885 853.334 19.1109C782.221 11.0333 711.11 11.0333 640 11.0333C568.89 11.0333 497.779 11.0333 426.666 7.80148C355.555 4.57166 284.445 -1.89204 213.334 0.531845C142.237 2.95518 71.1428 14.26 35.5795 19.915L35.5552 19.9189Z" fill="#3E0D93"/>
</svg>
