<svg width="1920" height="697" viewBox="0 0 1920 697" fill="none" xmlns="http://www.w3.org/2000/svg">
<path d="M35.5496 688.924L0 697V0.119995L35.5497 8.19558L35.563 8.19862C71.1171 16.2752 142.207 32.4244 213.301 32.4244C284.4 32.4244 355.499 16.2712 426.599 10.6189C497.701 4.96454 568.8 9.81111 639.9 19.5022C710.999 29.1933 782.098 43.731 853.201 43.731C924.3 43.731 995.399 29.1933 1066.5 25.1545C1137.6 21.1177 1208.7 27.5778 1279.8 25.1545C1350.9 22.7333 1422 11.4266 1493.1 5.7723C1564.2 0.119995 1635.3 0.119995 1706.4 8.19558C1777.48 16.2692 1848.56 32.4163 1884.12 40.4939L1919.7 48.5756V638.853L1884.15 637.238C1848.6 635.622 1777.5 632.393 1706.4 632.393C1635.3 632.393 1564.2 635.622 1493.1 642.892C1422 650.16 1350.9 661.467 1279.8 672.773L1279.77 672.778C1208.68 684.081 1137.59 695.384 1066.5 691.348C995.399 687.309 924.3 667.927 853.201 662.274C782.098 656.62 710.999 664.696 639.9 667.119C568.8 669.542 497.701 666.311 426.599 662.274C355.499 658.236 284.4 653.389 213.301 659.043C142.213 664.695 71.1272 680.843 35.5708 688.92L35.5496 688.924Z" fill="#3E0D93"/>
</svg>
