<svg width="1920" height="697" viewBox="0 0 1920 697" fill="none" xmlns="http://www.w3.org/2000/svg">
<path d="M1884.15 688.804L1919.7 696.88V348.88V0L1884.15 8.07559L1884.14 8.07863C1848.58 16.1552 1777.49 32.3044 1706.4 32.3044C1635.3 32.3044 1564.2 16.1512 1493.1 10.4989C1422 4.84454 1350.9 9.69111 1279.8 19.3822C1208.7 29.0733 1137.6 43.611 1066.5 43.611C995.399 43.611 924.3 29.0733 853.201 25.0345C782.098 20.9977 710.999 27.4578 639.9 25.0345C568.8 22.6133 497.701 11.3066 426.599 5.6523C355.499 0 284.4 0 213.301 8.07559C142.216 16.1492 71.1348 32.2963 35.5763 40.3739L35.5496 40.38L0 48.4556V348.88L1.26362e-05 638.733L35.5497 637.118C71.0993 635.502 142.198 632.273 213.301 632.273C284.4 632.273 355.499 635.502 426.599 642.772C497.701 650.04 568.8 661.347 639.9 672.653L639.927 672.658C711.017 683.961 782.107 695.264 853.201 691.228C924.3 687.189 995.399 667.807 1066.5 662.154C1137.6 656.5 1208.7 664.576 1279.8 666.999C1350.9 669.422 1422 666.191 1493.1 662.154C1564.2 658.116 1635.3 653.269 1706.4 658.923C1777.49 664.575 1848.57 680.723 1884.13 688.8L1884.15 688.804Z" fill="#3E0D93"/>
</svg>
