<svg width="116" height="53" viewBox="0 0 116 53" fill="none" xmlns="http://www.w3.org/2000/svg">
<path d="M22 28.7727C22 28.7727 19.1429 33 12 33C4.85714 33 2 28.7727 2 28.7727M22 13.9773C22 20.5921 17.5228 25.9545 12 25.9545C6.47715 25.9545 2 20.5921 2 13.9773C2 7.36241 6.47715 2 12 2C17.5228 2 22 7.36241 22 13.9773Z" stroke="white" stroke-width="3" stroke-linecap="round"/>
<path d="M114 28.7727C114 28.7727 111.143 33 104 33C96.8571 33 94 28.7727 94 28.7727M114 13.9773C114 20.5921 109.523 25.9545 104 25.9545C98.4772 25.9545 94 20.5921 94 13.9773C94 7.36241 98.4772 2 104 2C109.523 2 114 7.36241 114 13.9773Z" stroke="white" stroke-width="3" stroke-linecap="round"/>
<path d="M70 49.3941C70 51.6179 67.9334 53.2872 65.7678 52.9586C63.635 52.6351 60.8906 52.3383 58 52.3383C55.1094 52.3383 52.365 52.6351 50.2322 52.9586C48.0666 53.2872 46 51.6179 46 49.3941C46 43.1013 51.0228 38 57.2188 38H58.7812C64.9772 38 70 43.1013 70 49.3941Z" fill="#D9D9D9"/>
</svg>
