<svg width="106" height="51" viewBox="0 0 106 51" fill="none" xmlns="http://www.w3.org/2000/svg">
<path d="M17 10.5C17 16.299 13.1944 21 8.5 21C3.80558 21 0 16.299 0 10.5C0 10.2208 0.230663 10 0.509891 10H16.4901C16.7693 10 17 10.2208 17 10.5Z" fill="#D9D9D9"/>
<path d="M106 10.5C106 16.299 102.194 21 97.5 21C92.8056 21 89 16.299 89 10.5C89 10.2208 89.2307 10 89.5099 10H105.49C105.769 10 106 10.2208 106 10.5Z" fill="#D9D9D9"/>
<line x1="46.5" y1="39.5" x2="59.5" y2="39.5" stroke="white" stroke-width="3" stroke-linecap="round"/>
</svg>
