<svg width="106" height="51" viewBox="0 0 106 51" fill="none" xmlns="http://www.w3.org/2000/svg">
<path d="M4.16577 8.21247C3.81244 8.06256 3.40118 8.12475 3.13088 8.39724C1.22118 10.3223 0 13.2505 0 16.5327C0 22.3317 3.80558 27.0327 8.5 27.0327C13.1944 27.0327 17 22.3317 17 16.5327C17 15.6578 16.9129 14.8081 16.7495 13.9956C16.6872 13.6858 16.4692 13.4326 16.1783 13.3092L4.16577 8.21247Z" fill="#D9D9D9"/>
<path d="M101.834 8.21247C102.188 8.06256 102.599 8.12475 102.869 8.39724C104.779 10.3223 106 13.2505 106 16.5327C106 22.3317 102.194 27.0327 97.5 27.0327C92.8056 27.0327 89 22.3317 89 16.5327C89 15.6578 89.0871 14.8081 89.2505 13.9956C89.3128 13.6858 89.5308 13.4326 89.8217 13.3092L101.834 8.21247Z" fill="#D9D9D9"/>
<path d="M46 42.0327C46 42.0327 48 40.0327 53 40.0327C58 40.0327 60 43.0327 60 43.0327" stroke="white" stroke-width="3" stroke-linecap="round"/>
</svg>
