<svg width="106" height="51" viewBox="0 0 106 51" fill="none" xmlns="http://www.w3.org/2000/svg">
<path fill-rule="evenodd" clip-rule="evenodd" d="M8.5 4C13.1944 4 17 8.70101 17 14.5C17 20.299 13.1944 25 8.5 25C3.80558 25 0 20.299 0 14.5C0 8.70101 3.80558 4 8.5 4ZM9 12C8.44771 12 8 12.4477 8 13C8 13.5523 8.44771 14 9 14C9.55229 14 10 13.5523 10 13C10 12.4477 9.55229 12 9 12ZM5.5 7C4.11929 7 3 8.11929 3 9.5C3 10.8807 4.11929 12 5.5 12C6.88071 12 8 10.8807 8 9.5C8 8.11929 6.88071 7 5.5 7Z" fill="#D9D9D9"/>
<path fill-rule="evenodd" clip-rule="evenodd" d="M97.5 4C102.194 4 106 8.70101 106 14.5C106 20.299 102.194 25 97.5 25C92.8056 25 89 20.299 89 14.5C89 8.70101 92.8056 4 97.5 4ZM98 12C97.4477 12 97 12.4477 97 13C97 13.5523 97.4477 14 98 14C98.5523 14 99 13.5523 99 13C99 12.4477 98.5523 12 98 12ZM94.5 7C93.1193 7 92 8.11929 92 9.5C92 10.8807 93.1193 12 94.5 12C95.8807 12 97 10.8807 97 9.5C97 8.11929 95.8807 7 94.5 7Z" fill="#D9D9D9"/>
<ellipse cx="53" cy="42.5" rx="3.5" ry="4.5" fill="#D9D9D9"/>
</svg>
